<?xml version="1.0" encoding="UTF-8" standalone="no"?>
<!-- Created with Inkscape (http://www.inkscape.org/) -->

<svg
   width="31.999998"
   height="31.999998"
   viewBox="0 0 8.466666 8.4666661"
   version="1.1"
   id="svg1"
   xmlns="http://www.w3.org/2000/svg"
   xmlns:svg="http://www.w3.org/2000/svg">
  <defs
     id="defs1" />
  <g
     id="layer1">
    <path
       id="path2"
       style="font-variation-settings:'wght' 302;opacity:1;fill:none;stroke:#000000;stroke-width:0.264583;stroke-linecap:round"
       d="m 1.1782226,0.08681641 c -0.60463839,0 -1.09140619,0.4867678 -1.09140619,1.09140619 v 6.1102213 c 0,0.6046385 0.4867678,1.0914062 1.09140619,1.0914062 h 6.1102213 c 0.6046385,0 1.0914062,-0.4867677 1.0914062,-1.0914062 V 1.1782226 c 0,-0.60463839 -0.4867677,-1.09140619 -1.0914062,-1.09140619 z M 5.7526204,1.9678385 c 0.4463635,0.00316 0.8433593,0.065112 0.8433593,0.065112 v 1.1327474 c -0.2516011,2e-7 -0.4211947,0.00732 -0.5304795,0.01512 -0.094619,0.00675 -0.1707696,0.095655 -0.1707696,0.1909552 v 0.652787 H 6.5468871 V 4.9392333 H 5.9272867 v 3.411678 H 4.5568277 V 4.9226969 H 3.8715983 v -0.8816 H 4.5232381 L 4.499852,2.6588332 C 4.492242,2.2091932 5.1787244,1.9637707 5.7526204,1.9678385 Z" />
  </g>
</svg>
