<svg width="27" height="27" viewBox="0 0 27 27" fill="none" xmlns="http://www.w3.org/2000/svg">
<path d="M25.317 22.7848L4.25241 1.42405C3.47684 0.63757 2.21054 0.628729 1.42405 1.40431C0.637572 2.17988 0.628732 3.44618 1.40431 4.23266L22.4689 25.5934C23.2445 26.3799 24.5108 26.3888 25.2973 25.6132C26.0837 24.8376 26.0926 23.5713 25.317 22.7848Z" fill="black"/>
<path d="M4.24264 25.4558L25.4558 4.24264C26.2369 3.4616 26.2369 2.19527 25.4558 1.41422C24.6748 0.633168 23.4085 0.633168 22.6274 1.41422L1.41421 22.6274C0.633162 23.4085 0.633164 24.6748 1.41421 25.4558C2.19526 26.2369 3.46159 26.2369 4.24264 25.4558Z" fill="black"/>
</svg>
