<svg width="34" height="14" viewBox="0 0 34 14" fill="none" xmlns="http://www.w3.org/2000/svg">
<path d="M32 0H2C0.895431 0 0 0.895431 0 2C0 3.10457 0.895431 4 2 4H32C33.1046 4 34 3.10457 34 2C34 0.895431 33.1046 0 32 0Z" fill="black"/>
<path d="M32 5H2C0.895431 5 0 5.89543 0 7C0 8.10457 0.895431 9 2 9H32C33.1046 9 34 8.10457 34 7C34 5.89543 33.1046 5 32 5Z" fill="black"/>
<path d="M32 10H2C0.895431 10 0 10.8954 0 12C0 13.1046 0.895431 14 2 14H32C33.1046 14 34 13.1046 34 12C34 10.8954 33.1046 10 32 10Z" fill="black"/>
</svg>
